<?xml version="1.0" standalone="no"?><!DOCTYPE svg PUBLIC "-//W3C//DTD SVG 1.1//EN" "http://www.w3.org/Graphics/SVG/1.1/DTD/svg11.dtd"><svg t="1774510766366" class="icon" viewBox="0 0 1024 1024" version="1.1" xmlns="http://www.w3.org/2000/svg" p-id="14120" xmlns:xlink="http://www.w3.org/1999/xlink" width="256" height="256"><path d="M177.28 838.08a19.68 19.68 0 0 1 19.648 20.064v8.32c0 10.88 8.8 19.68 19.68 19.68h630.176a19.68 19.68 0 0 1 0 39.392H216.608a59.072 59.072 0 0 1-59.072-59.072v-8.736a19.744 19.744 0 0 1 19.712-19.68zM807.36 98.432c32.64 0 59.104 26.432 59.104 59.072v393.856c0 8.64-5.568 16-13.312 18.624h-12.768a19.712 19.712 0 0 1-13.312-18.624V157.536a19.68 19.68 0 0 0-19.68-19.68H216.608a19.68 19.68 0 0 0-19.68 19.68L196.896 569.6l0.032 0.448a19.68 19.68 0 0 1-16.768 19.456l-2.88 0.224a19.68 19.68 0 0 1-19.712-19.68V157.536c0-32.64 26.432-59.072 59.04-59.072h590.784z" fill="#1296db" p-id="14121"></path><path d="M112 640.064V800h106.88v-22.4H135.552v-48.384h75.136v-22.4H135.52v-44.352h80v-22.4H112z m129.024 0V800h23.488v-65.184h37.184c8.032 0 14.272 1.792 18.496 5.824 4 3.808 6.4 10.08 7.232 18.816l1.792 19.712c0.832 8.96 2.816 15.904 6.24 20.832h25.536c-4.832-5.824-7.84-13.664-8.64-23.52l-2.432-25.76c-1.6-15.68-8.64-24.864-21.12-28v-0.448a31.424 31.424 0 0 0 18.304-14.112 41.28 41.28 0 0 0 6.048-22.176c0-15.232-4.64-26.88-13.472-34.944-8.448-7.392-20.096-10.976-34.752-10.976H241.024z m23.488 22.4h37.184c9.664 0 16.672 1.792 21.12 5.824 4.416 3.808 6.624 10.08 6.624 18.816 0 8.064-2.24 14.336-6.624 18.816-4.832 4.256-11.872 6.496-21.12 6.496H264.512v-49.952z m178.88-25.536c-22.912 0-40.416 8.288-52.48 25.312-10.624 14.784-15.872 34.272-15.872 58.016 0 24.192 5.024 43.456 15.296 57.792 11.648 16.576 29.536 25.088 53.44 25.088 15.488 0 28.736-4.928 39.776-14.784 11.84-10.528 19.296-25.088 22.528-43.904h-22.912c-2.816 12.096-7.648 21.28-14.464 27.328-6.432 5.376-14.88 8.288-25.12 8.288-15.68 0-27.328-5.6-34.784-16.352-6.816-10.08-10.24-24.64-10.24-43.456 0-18.368 3.424-32.704 10.464-43.008 7.616-11.648 18.88-17.248 33.92-17.248 10.08 0 18.304 2.24 24.736 7.168 6.656 4.928 11.072 12.544 13.472 23.072h22.912c-2.24-16.128-8.448-29.12-18.88-38.528-10.88-9.856-24.96-14.784-41.824-14.784z m117.344 3.136c-4.8 5.6-10.88 10.752-18.08 15.68-7.232 4.48-14.08 7.616-20.48 9.408v25.984a79.04 79.04 0 0 0 32.736-19.488V800h23.488v-159.936h-17.664z m82.4 0c-4.832 5.6-10.88 10.752-18.112 15.68-7.232 4.48-14.08 7.616-20.48 9.408v25.984a79.04 79.04 0 0 0 32.736-19.488V800h23.52v-159.936h-17.664z m54.24 0l-7.84 90.048h21.92a27.232 27.232 0 0 1 11.648-12.32c4.416-2.464 9.856-3.584 16.064-3.584 9.28 0 16.48 2.912 21.312 9.184 4.8 6.048 7.424 14.56 7.424 25.312 0 9.856-3.008 17.696-8.64 23.52a29.344 29.344 0 0 1-21.504 8.736c-7.84 0-14.08-2.016-18.464-5.6-5.248-4.256-8.256-10.752-9.28-19.488h-23.072c0.992 14.784 6.624 26.656 17.056 35.392 9.28 7.84 20.48 11.872 33.6 11.872 14.24 0 26.496-4.704 36.96-14.112 11.232-10.528 16.864-23.968 16.864-40.544 0-17.248-4.416-30.912-12.864-40.768a41.44 41.44 0 0 0-32.96-14.784c-6.4 0-12.256 1.12-17.472 3.36-5.824 2.24-10.88 5.824-15.264 10.752h-0.64l4.032-43.904h68.544v-23.072h-87.424z m120.576 0l-7.84 90.048h21.92a27.232 27.232 0 0 1 11.648-12.32c4.416-2.464 9.856-3.584 16.064-3.584 9.28 0 16.48 2.912 21.312 9.184 4.8 6.048 7.424 14.56 7.424 25.312 0 9.856-3.008 17.696-8.64 23.52a29.344 29.344 0 0 1-21.504 8.736c-7.84 0-14.08-2.016-18.464-5.6-5.248-4.256-8.256-10.752-9.28-19.488h-23.104c1.024 14.784 6.656 26.656 17.088 35.392 9.28 7.84 20.48 11.872 33.568 11.872 14.272 0 26.528-4.704 36.96-14.112 11.264-10.528 16.896-23.968 16.896-40.544 0-17.248-4.416-30.912-12.864-40.768a41.44 41.44 0 0 0-32.96-14.784c-6.4 0-12.256 1.12-17.472 3.36-5.824 2.24-10.88 5.824-15.264 10.752h-0.64l4.032-43.904h68.544v-23.072H817.92z" fill="#1296db" p-id="14122"></path><path d="M674.56 369.12H303.872a19.68 19.68 0 0 1 0-39.392h370.752a19.68 19.68 0 1 1 0 39.36zM537.888 551.36H303.84a19.68 19.68 0 1 1 0-39.36h234.048a19.68 19.68 0 0 1 0 39.36z" fill="#1296db" p-id="14123"></path></svg>