<?xml version="1.0" standalone="no"?><!DOCTYPE svg PUBLIC "-//W3C//DTD SVG 1.1//EN" "http://www.w3.org/Graphics/SVG/1.1/DTD/svg11.dtd"><svg t="1774751019001" class="icon" viewBox="0 0 1024 1024" version="1.1" xmlns="http://www.w3.org/2000/svg" p-id="6819" xmlns:xlink="http://www.w3.org/1999/xlink" width="256" height="256"><path d="M1002.666667 298.666667v618.666666a85.333333 85.333333 0 0 1-85.333334 85.333334H277.333333s-85.333333 0-85.333333-85.333334V106.666667a85.333333 85.333333 0 0 1 85.333333-85.333334h448v192a85.333333 85.333333 0 0 0 85.333334 85.333334z" fill="#FFFFFF" p-id="6820"></path><path d="M1002.666667 298.666667h-192a85.333333 85.333333 0 0 1-85.333334-85.333334V21.333333z" fill="#D0D7DF" p-id="6821"></path><path d="M448 768m-234.666667 0a234.666667 234.666667 0 1 0 469.333334 0 234.666667 234.666667 0 1 0-469.333334 0Z" fill="#FED049" p-id="6822"></path><path d="M448 768m-128 0a128 128 0 1 0 256 0 128 128 0 1 0-256 0Z" fill="#F6B445" p-id="6823"></path><path d="M362.666667 640a170.666667 170.666667 0 0 1-341.333334 0V320a42.794667 42.794667 0 0 1 42.666667-42.666667h256a42.794667 42.794667 0 0 1 42.666667 42.666667z" fill="#35DC86" p-id="6824"></path><path d="M21.333333 832v-192a170.666667 170.666667 0 0 0 341.333334 0v320a42.794667 42.794667 0 0 1-42.666667 42.666667H64a42.794667 42.794667 0 0 1-42.666667-42.666667z" fill="#35DC86" p-id="6825"></path><path d="M192 640m-170.666667 0a170.666667 170.666667 0 1 0 341.333334 0 170.666667 170.666667 0 1 0-341.333334 0Z" fill="#F1F2F2" p-id="6826"></path><path d="M1022.336 290.453333a21.205333 21.205333 0 0 0-4.586667-6.869333l-277.333333-277.333333A21.333333 21.333333 0 0 0 725.333333 0H277.333333a106.794667 106.794667 0 0 0-106.666666 106.666667v85.333333a21.333333 21.333333 0 0 0 42.666666 0V106.666667a64 64 0 0 1 64-64h439.168l234.666667 234.666666H810.666667a64 64 0 0 1-64-64V149.333333a21.333333 21.333333 0 0 0-42.666667 0v64a106.794667 106.794667 0 0 0 106.666667 106.666667h170.666666v597.333333a64 64 0 0 1-64 64H682.666667a21.333333 21.333333 0 0 0 0 42.666667h234.666666a106.794667 106.794667 0 0 0 106.666667-106.666667V298.666667a21.077333 21.077333 0 0 0-1.664-8.213334z" fill="#474C54" p-id="6827"></path><path d="M320 256H64a64 64 0 0 0-64 64v320a192 192 0 0 0 341.333333 120.554667V960a21.333333 21.333333 0 0 1-21.333333 21.333333H64a21.333333 21.333333 0 0 1-21.333333-21.333333v-128a21.333333 21.333333 0 0 0-42.666667 0v128a64 64 0 0 0 64 64h256a64 64 0 0 0 64-64V320a64 64 0 0 0-64-64z m21.333333 263.445333a192 192 0 0 0-243.498666-46.805333 21.333333 21.333333 0 0 0 20.970666 37.226667A149.333333 149.333333 0 1 1 42.666667 640V320a21.333333 21.333333 0 0 1 21.333333-21.333333h256a21.333333 21.333333 0 0 1 21.333333 21.333333z" fill="#474C54" p-id="6828"></path><path d="M213.333333 917.333333v-21.333333a21.333333 21.333333 0 0 0-42.666666 0v21.333333a21.333333 21.333333 0 0 0 42.666666 0zM192 341.333333a21.333333 21.333333 0 0 0-21.333333 21.333334v21.333333a21.333333 21.333333 0 0 0 42.666666 0v-21.333333a21.333333 21.333333 0 0 0-21.333333-21.333334zM448 512a21.333333 21.333333 0 0 0 0 42.666667 213.333333 213.333333 0 0 1 0 426.666666 21.333333 21.333333 0 0 0 0 42.666667 256 256 0 0 0 0-512z" fill="#474C54" p-id="6829"></path><path d="M448 874.666667a21.333333 21.333333 0 0 0 0 42.666666 149.333333 149.333333 0 0 0 0-298.666666 21.333333 21.333333 0 0 0 0 42.666666 106.666667 106.666667 0 0 1 0 213.333334z" fill="#474C54" p-id="6830"></path></svg>