<?xml version="1.0" standalone="no"?><!DOCTYPE svg PUBLIC "-//W3C//DTD SVG 1.1//EN" "http://www.w3.org/Graphics/SVG/1.1/DTD/svg11.dtd"><svg t="1774510127428" class="icon" viewBox="0 0 1024 1024" version="1.1" xmlns="http://www.w3.org/2000/svg" p-id="9199" xmlns:xlink="http://www.w3.org/1999/xlink" width="256" height="256"><path d="M512 512m-512 0a512 512 0 1 0 1024 0 512 512 0 1 0-1024 0Z" fill="#FFFFFF" p-id="9200"></path><path d="M37.248 366.506667c29.994667-54.912 113.066667-131.413333 169.642667-83.626667 10.24 33.066667 30.208 104.746667 53.333333 187.733333 33.109333 118.613333 72.618667 260.352 99.328 345.173334h32.341333C441.130667 667.306667 538.453333 377.813333 547.669333 355.84l0.128-0.341333c11.52-27.52 30.464-72.533333 141.44-72.533334 61.141333 0 87.68 77.653333 79.616 118.272-8.106667 40.618667-36.352 111.104-135.594666 99.157334v1.706666c0 7.68-0.042667 19.285333 3.2 24.021334 0.810667 1.194667 7.594667 2.816 17.578666 5.162666 31.658667 7.509333 95.744 22.656 105.6 57.557334H503.466667c-20.053333 80.042667-2.773333 246.144 180.010666 246.144 182.784 0 184.618667-146.986667 162.688-217.472 29.226667 3.2 95.573333-4.053333 126.933334-58.538667 6.485333-9.557333 7.338667-55.765333 6.954666-77.653333-10.026667 40.192-50.773333 118.016-133.888 107.52l-2.56-3.456c-26.026667-35.242667-57.514667-77.781333-94.378666-77.781334 5.376-3.413333 10.666667-6.613333 15.829333-9.813333 52.053333-31.829333 94.208-57.642667 81.109333-141.952-10.368-66.901333-56.533333-106.368-162.688-106.368-127.573333 0-168.533333 57.984-180.053333 87.04l-123.093333 358.4c-46.165333-146.56-114.986667-403.2-116.992-411.946667-14.634667-63.488-164.949333-77.653333-208.810667 31.061334C19.456 400.938667 28.373333 385.237333 37.248 366.506667z m741.973333 256.938666h-189.226666c-40.405333 58.538667-1.152 185.173333 87.722666 185.173334 101.546667 0 115.370667-123.434667 101.546667-185.173334z" fill="#FF007A" p-id="9201"></path><path d="M512 980.096c258.56 0 468.096-209.578667 468.096-468.096C980.096 253.44 770.56 43.904 512 43.904 253.44 43.904 43.904 253.44 43.904 512c0 258.56 209.578667 468.096 468.096 468.096zM1024 512c0 282.752-229.248 512-512 512S0 794.752 0 512 229.248 0 512 0s512 229.248 512 512z" fill="#FF007A" p-id="9202"></path></svg>