<?xml version="1.0" standalone="no"?><!DOCTYPE svg PUBLIC "-//W3C//DTD SVG 1.1//EN" "http://www.w3.org/Graphics/SVG/1.1/DTD/svg11.dtd"><svg t="1774494179119" class="icon" viewBox="0 0 1024 1024" version="1.1" xmlns="http://www.w3.org/2000/svg" p-id="14458" width="256" height="256" xmlns:xlink="http://www.w3.org/1999/xlink"><path d="M408 160A40 40 0 0 0 368 120H160A40 40 0 0 0 120 160v208a40 40 0 0 0 40 40h208a40 40 0 0 0 40-40V160zM904 656a40 40 0 0 0-40-40H656a40 40 0 0 0-40 40v208a40 40 0 0 0 40 40h208a40 40 0 0 0 40-40V656z" fill="#FFD740" p-id="14459"></path><path d="M688 296H336a16 16 0 0 1-16-16v-32a16 16 0 0 1 16-16h352a16 16 0 0 1 16 16v32a16 16 0 0 1-16 16z" fill="#40C4FF" p-id="14460"></path><path d="M688 304H336c-13.232 0-24-10.768-24-24v-32c0-13.232 10.768-24 24-24h352c13.232 0 24 10.768 24 24v32A24 24 0 0 1 688 304z m-352-64a8 8 0 0 0-8 8v32a8 8 0 0 0 8 8h352a8 8 0 0 0 8-8v-32a8 8 0 0 0-8-8H336zM368 416h-40a8 8 0 0 1 0-16H368c17.648 0 32-14.352 32-32v-40a8 8 0 0 1 16 0V368c0 26.48-21.52 48-48 48z" fill="#263238" p-id="14461"></path><path d="M200 416H160c-26.464 0-48-21.536-48-48V160c0-26.464 21.536-48 48-48h208c26.464 0 48 21.536 48 48v40a8 8 0 0 1-16 0V160c0-17.648-14.352-32-32-32H160c-17.648 0-32 14.352-32 32v208c0 17.648 14.352 32 32 32h40a8 8 0 0 1 0 16zM696 416H656c-26.464 0-48-21.536-48-48v-40a8 8 0 0 1 16 0V368c0 17.648 14.352 32 32 32h40a8 8 0 0 1 0 16zM864 416h-40a8 8 0 0 1 0-16H864c17.648 0 32-14.352 32-32V160c0-17.648-14.352-32-32-32H656c-17.648 0-32 14.352-32 32v40a8 8 0 0 1-16 0V160c0-26.464 21.536-48 48-48h208c26.464 0 48 21.536 48 48v208c0 26.48-21.52 48-48 48z" fill="#263238" p-id="14462"></path><path d="M336 728h352a16 16 0 0 1 16 16v32a16 16 0 0 1-16 16H336a16 16 0 0 1-16-16v-32a16 16 0 0 1 16-16z" fill="#40C4FF" p-id="14463"></path><path d="M688 800H336c-13.232 0-24-10.768-24-24v-32c0-13.232 10.768-24 24-24h352c13.232 0 24 10.768 24 24v32A24 24 0 0 1 688 800z m-352-64a8 8 0 0 0-8 8v32a8 8 0 0 0 8 8h352a8 8 0 0 0 8-8v-32a8 8 0 0 0-8-8H336z" fill="#263238" p-id="14464"></path><path d="M728 688V336a16 16 0 0 1 16-16h32a16 16 0 0 1 16 16v352a16 16 0 0 1-16 16h-32a16 16 0 0 1-16-16z" fill="#40C4FF" p-id="14465"></path><path d="M776 712h-32c-13.232 0-24-10.768-24-24V336c0-13.232 10.768-24 24-24h32c13.232 0 24 10.768 24 24v352a24 24 0 0 1-24 24z m-32-384a8 8 0 0 0-8 8v352a8 8 0 0 0 8 8h32a8 8 0 0 0 8-8V336a8 8 0 0 0-8-8h-32z" fill="#263238" p-id="14466"></path><path d="M296 336v352a16 16 0 0 1-16 16h-32a16 16 0 0 1-16-16V336a16 16 0 0 1 16-16h32a16 16 0 0 1 16 16z" fill="#40C4FF" p-id="14467"></path><path d="M280 712h-32c-13.232 0-24-10.768-24-24V336c0-13.232 10.768-24 24-24h32c13.232 0 24 10.768 24 24v352a24 24 0 0 1-24 24z m-32-384a8 8 0 0 0-8 8v352a8 8 0 0 0 8 8h32a8 8 0 0 0 8-8V336a8 8 0 0 0-8-8h-32zM616 704a8 8 0 0 1-8-8V656c0-26.464 21.536-48 48-48h40a8 8 0 0 1 0 16H656c-17.648 0-32 14.352-32 32v40c0 4.432-3.568 8-8 8zM864 912H656c-26.464 0-48-21.536-48-48v-40a8 8 0 0 1 16 0V864c0 17.648 14.352 32 32 32h208c17.648 0 32-14.352 32-32V656c0-17.648-14.352-32-32-32h-40a8 8 0 0 1 0-16H864c26.464 0 48 21.536 48 48v208c0 26.48-21.52 48-48 48zM408 704a8 8 0 0 1-8-8V656c0-17.648-14.352-32-32-32h-40a8 8 0 0 1 0-16H368c26.464 0 48 21.536 48 48v40c0 4.432-3.568 8-8 8z" fill="#263238" p-id="14468"></path><path d="M368 912H160c-26.464 0-48-21.536-48-48V656c0-26.464 21.536-48 48-48h40a8 8 0 0 1 0 16H160c-17.648 0-32 14.352-32 32v208c0 17.648 14.352 32 32 32h208c17.648 0 32-14.352 32-32v-40a8 8 0 0 1 16 0V864c0 26.48-21.52 48-48 48z" fill="#263238" p-id="14469"></path><path d="M872 80h-16a8 8 0 1 1 0-16h16a8 8 0 1 1 0 16z" fill="#263238" p-id="14470"></path><path d="M824 80h-176a8 8 0 1 1 0-16h176a8 8 0 1 1 0 16z" fill="#263238" p-id="14471"></path><path d="M168 960h-16a8 8 0 1 1 0-16h16a8 8 0 0 1 0 16z" fill="#263238" p-id="14472"></path><path d="M376 960h-176a8 8 0 0 1 0-16h176a8 8 0 0 1 0 16z" fill="#263238" p-id="14473"></path></svg>