<?xml version="1.0" standalone="no"?><!DOCTYPE svg PUBLIC "-//W3C//DTD SVG 1.1//EN" "http://www.w3.org/Graphics/SVG/1.1/DTD/svg11.dtd"><svg t="1774508010489" class="icon" viewBox="0 0 1755 1024" version="1.1" xmlns="http://www.w3.org/2000/svg" p-id="6038" xmlns:xlink="http://www.w3.org/1999/xlink" width="438.75" height="256"><path d="M0 0m116.274449 0l1162.744485 0q116.274449 0 116.274449 116.274449l0 581.372242q0 116.274449-116.274449 116.274449l-1162.744485 0q-116.274449 0-116.274449-116.274449l0-581.372242q0-116.274449 116.274449-116.274449Z" fill="#F5A623" p-id="6039"></path><path d="M174.411673 183.132257h276.151815q6.395095 0 6.395095 6.976466V232.548897a5.813722 5.813722 0 0 1-6.395095 6.395095H232.548897q-4.650978 0-4.650978 4.069606v133.715615a4.069606 4.069606 0 0 0 4.650978 4.650978h184.876373q6.976467 0 6.976467 6.395095v42.440174a6.395095 6.395095 0 0 1-6.976467 6.976467H232.548897q-4.650978 0-4.650978 4.069605V581.372243h222.665569a5.813722 5.813722 0 0 1 6.395095 6.395095v43.021546a5.813722 5.813722 0 0 1-6.395095 6.395094H174.411673a5.813722 5.813722 0 0 1-6.395095-6.395094V190.108723q1.162744-6.976467 6.395095-6.976466z m622.0683 449.982115l-91.275442-186.620489H604.627133q-4.650978 0-4.650978 4.069605v183.132257a5.813722 5.813722 0 0 1-6.395095 6.395094h-46.509779a5.813722 5.813722 0 0 1-6.395095-6.395094V190.108723q0-6.976467 6.395095-6.976466h165.691089a165.109717 165.109717 0 0 1 74.997019 16.278422 116.274449 116.274449 0 0 1 49.998013 46.50978 134.296988 134.296988 0 0 1 17.441167 69.183297 127.901893 127.901893 0 0 1-23.836262 77.90388 129.64601 129.64601 0 0 1-65.695063 46.50978l97.089164 192.434212a14.534306 14.534306 0 0 1 0 4.650978s0 4.069606-5.23235 4.069606h-53.486246a9.301956 9.301956 0 0 1-7.557839-7.55784z m0-318.591989a71.508786 71.508786 0 0 0-22.092145-58.137224 90.112698 90.112698 0 0 0-62.20683-19.766656H604.627133q-4.650978 0-4.650978 4.069606v145.34306s0 4.069606 4.650978 4.069606h106.972492a91.275442 91.275442 0 0 0 62.20683-19.766656 70.927414 70.927414 0 0 0 22.092146-55.811736zM930.195589 411.030176v-81.392114a205.805774 205.805774 0 0 1 9.883328-47.091152 149.994039 149.994039 0 0 1 58.137224-80.810742 180.225395 180.225395 0 0 1 184.295001 0 152.319528 152.319528 0 0 1 58.137224 68.020553 8.720584 8.720584 0 0 1 0 4.069605 5.813722 5.813722 0 0 1-3.488233 5.232351l-40.114685 19.185284h-4.650978s-4.069606 0-5.23235-5.232351a120.344054 120.344054 0 0 0-37.207824-44.765662 95.92642 95.92642 0 0 0-58.137224-15.697051 97.670537 97.670537 0 0 0-58.137224 16.859795 105.809748 105.809748 0 0 0-34.882335 49.998013 245.920459 245.920459 0 0 0-6.976467 39.533313V486.027195a229.060664 229.060664 0 0 0 6.976467 38.95194 105.809748 105.809748 0 0 0 34.882335 49.998013 97.670537 97.670537 0 0 0 58.137224 16.859795 95.92642 95.92642 0 0 0 58.137224-15.69705 120.344054 120.344054 0 0 0 37.207824-44.765663q0-6.395095 9.883328-3.488233l40.114685 19.185284q4.650978 0 0 8.720583a152.319528 152.319528 0 0 1-58.137224 68.020553 180.225395 180.225395 0 0 1-184.295001 0 149.994039 149.994039 0 0 1-58.137225-80.810742 205.805774 205.805774 0 0 1-9.883328-47.091152Q930.195589 465.097794 930.195589 411.030176z" fill="#FFFFFF" p-id="6040"></path></svg>