<?xml version="1.0" standalone="no"?><!DOCTYPE svg PUBLIC "-//W3C//DTD SVG 1.1//EN" "http://www.w3.org/Graphics/SVG/1.1/DTD/svg11.dtd"><svg t="1774508535930" class="icon" viewBox="0 0 1024 1024" version="1.1" xmlns="http://www.w3.org/2000/svg" p-id="7237" xmlns:xlink="http://www.w3.org/1999/xlink" width="256" height="256"><path d="M447.2832 85.248a131.7632 131.7632 0 0 1 129.4336 0l280.1664 158.464A126.3616 126.3616 0 0 1 921.6 353.536v316.928c0 45.312-24.6784 87.168-64.7168 109.824l-280.1664 158.464a131.7632 131.7632 0 0 1-129.4336 0L167.1168 780.288A126.3616 126.3616 0 0 1 102.4 670.464V353.536c0-45.312 24.6784-87.168 64.7168-109.824l280.1664-158.464z m-60.416 291.584c-9.3184 0-15.9488 2.2272-19.968 6.656-3.968 4.4288-5.9648 8.9856-5.9648 13.696v159.9232L234.8032 390.912a78.464 78.464 0 0 0-8.576-9.3696 18.176 18.176 0 0 0-12.9792-4.6848c-9.5744 0-15.6928 1.8688-18.3552 5.6576a21.5552 21.5552 0 0 0-3.9936 12.6976v241.664c0 4.6848 1.9968 9.2416 5.9904 13.6704 3.9936 4.4288 10.6496 6.656 19.968 6.656 9.2928 0 15.9488-2.0992 19.968-6.2464a19.8656 19.8656 0 0 0 5.9648-14.08v-154.4704l125.7216 160.7168c2.4064 3.1232 5.376 6.2464 8.96 9.3952 3.6096 3.1232 8.064 4.6848 13.3888 4.6848 9.3184 0 15.3088-1.8176 17.9712-5.4784a20.1216 20.1216 0 0 0 3.9936-12.1088v-242.432a19.8656 19.8656 0 0 0-5.9904-14.08c-3.9936-4.1728-10.6496-6.2464-19.968-6.2464z m218.7264 3.9168h-123.3152c-8.5248 0-14.9248 1.5616-19.1744 4.7104-4.2496 3.1232-6.4 8.704-6.4 16.7936v238.9248c0 3.6352 1.9456 7.2192 5.8112 10.752 3.84 3.5072 10.4448 5.2736 19.7376 5.2736 9.3184 0 16.0512-1.7664 20.1728-5.2736 4.096-3.5328 6.1696-7.1168 6.1696-10.752v-106.752h84.6336c8.4992 0 14.6176-1.6384 18.3552-4.8896 3.712-3.2512 5.5808-8.8064 5.5808-16.64 0-7.5264-1.8688-13.1328-5.5808-16.7936-4.5312-3.6608-10.6496-5.4784-18.3552-5.4784h-84.608v-66.0736h96.5632c7.7312 0 13.7216-1.6384 17.9712-4.864 4.2496-3.2768 6.2464-8.96 5.9904-17.024-0.256-8.0896-2.3296-13.7472-6.1952-17.024-3.84-3.2512-9.6512-4.864-17.3568-4.864z m219.136 0h-154.0864a21.9648 21.9648 0 0 0-14.336 5.2992c-4.2752 3.5072-6.4 9.3184-6.4 17.408 0 8.32 2.2528 14.1824 6.784 17.5872a23.04 23.04 0 0 0 13.952 5.0688h51.0976v210.7648c0 4.6848 1.9968 9.2416 5.9904 13.6704 3.9936 4.4288 10.6496 6.656 19.968 6.656 9.2928 0 15.9488-2.0992 19.9424-6.2464a19.8656 19.8656 0 0 0 5.9904-14.08v-210.7648h51.072a23.04 23.04 0 0 0 13.9776-5.0688c4.5312-3.4048 6.784-9.2672 6.784-17.6128 0-8.0896-2.1248-13.8752-6.4-17.408a21.9648 21.9648 0 0 0-14.336-5.2736z" p-id="7238"></path></svg>