<?xml version="1.0" standalone="no"?><!DOCTYPE svg PUBLIC "-//W3C//DTD SVG 1.1//EN" "http://www.w3.org/Graphics/SVG/1.1/DTD/svg11.dtd"><svg t="1774509416424" class="icon" viewBox="0 0 1024 1024" version="1.1" xmlns="http://www.w3.org/2000/svg" p-id="7788" xmlns:xlink="http://www.w3.org/1999/xlink" width="256" height="256"><path d="M488.150078 486.84257c21.259501 37.912777-26.574376 49.605502-49.251177 51.731452-35.432501 3.54325-41.101702-16.298951-35.432501-41.101702a43.227652 43.227652 0 0 1 13.818676-23.031126 41.456027 41.456027 0 0 1 24.448426-10.62975 43.581977 43.581977 0 0 1 25.865726 4.96055 45.707927 45.707927 0 0 1 19.487875 18.070576zM622.084934 416.331892c-24.802751 192.044158 311.806013 152.005431 305.428162 304.719512a160.154906 160.154906 0 0 0-50.314152-221.807459c-87.163954-54.211727-200.547958-24.448426-255.11401-82.912053zM816.255042 344.049589l-6.732176-6.023525zM894.56087 484.00797a113.73833 113.73833 0 0 0-10.275426-16.298951 81.494753 81.494753 0 0 0-46.062251-31.180601 197.359033 197.359033 0 0 0-37.558452-6.023526c-13.110026 0-26.220051 0-39.330077-2.12595a350.781764 350.781764 0 0 1-80.431778-12.04705 214.720959 214.720959 0 0 1-19.842201-6.37785l-9.566775-3.897576-9.9211-4.606225a171.493307 171.493307 0 0 1-35.432502-25.157076 479.756069 479.756069 0 0 1-52.794427-62.006877q-22.322476-30.826276-48.188202-60.943903a217.201234 217.201234 0 0 0-59.526602-46.770902 204.445533 204.445533 0 0 0-74.762578-21.613826 173.619257 173.619257 0 0 1 79.368803 9.921101 212.595009 212.595009 0 0 1 69.447703 43.936302 474.795519 474.795519 0 0 1 35.432501 38.975751 297.278687 297.278687 0 0 1 205.508508 26.928701 283.460011 283.460011 0 0 1 46.770902 32.597902l6.732176 6.023525a346.884189 346.884189 0 0 1 31.180601 33.306551 198.067683 198.067683 0 0 1 49.251177 107.36048zM894.56087 484.00797zM375.474724 209.760408a92.833154 92.833154 0 0 1 57.400652 28.346002 119.761855 119.761855 0 0 1 23.385451 57.754977 259.720235 259.720235 0 0 0 12.401376 46.770902 188.855233 188.855233 0 0 0 10.984075 20.550851 170.076007 170.076007 0 0 1 10.629751 17.0076 7.79515 7.79515 0 0 1 0 2.8346 3.188925 3.188925 0 0 1 0 2.480276c-7.440825 8.5038-27.637351 0-35.432502-4.606226a114.801305 114.801305 0 0 1-35.432501-26.574376 192.752808 192.752808 0 0 1-45.707927-128.265655 127.20268 127.20268 0 0 1 1.771625-16.298951z" fill="#FF007A" p-id="7789"></path><path d="M735.468938 595.620349c-45.707927 130.391605 164.406807 219.327184 85.392329 350.073114a167.950057 167.950057 0 0 0 85.746653-215.783934c-29.408976-70.865003-116.218605-96.376404-171.138982-134.28918zM456.260827 766.050681a184.957657 184.957657 0 0 1 41.456027-21.968151 228.185309 228.185309 0 0 1 46.062252-13.110025 481.173369 481.173369 0 0 0 87.872603-18.070576 111.61238 111.61238 0 0 0 35.432502-21.613826 84.329353 84.329353 0 0 0 21.968151-33.306551 106.297504 106.297504 0 0 0 5.6692-42.164677 146.690556 146.690556 0 0 0-10.275426-44.290627 98.148029 98.148029 0 0 1 24.448426 42.873327 102.399929 102.399929 0 0 1 0 49.605502 100.628304 100.628304 0 0 1-25.511401 46.062252 119.40753 119.40753 0 0 1-43.581976 27.283026 179.288457 179.288457 0 0 1-48.542527 9.9211c-15.944626 0-31.534926 1.771625-46.770902 2.8346a289.837862 289.837862 0 0 0-89.644229 17.716251zM753.893839 995.298965c-4.606225 3.54325-9.21245 7.440825-14.527325 10.984076a147.753531 147.753531 0 0 1-16.298951 9.21245 85.746653 85.746653 0 0 1-37.558452 8.5038 89.998554 89.998554 0 0 1-75.116903-57.046327c-9.9211-20.196526-16.653276-42.164677-28.700326-61.652552a85.038003 85.038003 0 0 0-79.368803-46.062252 47.479552 47.479552 0 0 0-35.432501 20.196526 46.416577 46.416577 0 0 0 45.707926 69.093377 27.283026 27.283026 0 0 0 9.212451-2.480275 24.094101 24.094101 0 0 0 8.149475-4.96055 35.432501 35.432501 0 0 0 11.338401-16.298951 41.810352 41.810352 0 0 0 1.771625-20.905176 30.826276 30.826276 0 0 0-12.047051-17.71625 32.597901 32.597901 0 0 1 15.590301 16.653275 45.353602 45.353602 0 0 1 2.12595 23.739776 47.833877 47.833877 0 0 1-10.629751 22.676801 57.046327 57.046327 0 0 1-9.9211 8.503801 88.226929 88.226929 0 0 1-11.692725 5.6692 59.880927 59.880927 0 0 1-26.220051 2.480275 68.739053 68.739053 0 0 1-33.306552-14.527326 361.05719 361.05719 0 0 1-30.471951-31.180601 141.730006 141.730006 0 0 0-41.101702-30.117626 158.383281 158.383281 0 0 0-33.306551-10.62975l-16.653276-2.480276a61.652552 61.652552 0 0 0-17.361925-1.771625 376.293165 376.293165 0 0 1 58.463627-43.936301 278.853786 278.853786 0 0 1 68.384728-29.408977 193.815783 193.815783 0 0 1 76.888528-6.023525 145.981906 145.981906 0 0 1 38.267101 10.275426 104.171554 104.171554 0 0 1 58.817953 55.983352 174.327907 174.327907 0 0 1 11.692725 37.912776c7.79515 38.621427 4.96055 98.856679 55.629027 106.297505a29.408976 29.408976 0 0 0 7.795151 0h8.5038a125.431055 125.431055 0 0 0 16.653276-2.480275 208.697433 208.697433 0 0 0 33.660876-11.338401zM459.804077 952.779963zM414.450475 404.993491a59.526602 59.526602 0 0 1-8.149475 20.196526 77.597178 77.597178 0 0 1-31.534926 24.094101 111.61238 111.61238 0 0 1-35.432502 9.212451h-8.149475a35.432501 35.432501 0 0 0-20.905176 8.149475 35.432501 35.432501 0 0 0-12.401375 18.779226c0 3.54325 0 7.440825-2.12595 10.984075 0 9.9211 0 20.196526-2.480275 32.597901a187.437933 187.437933 0 0 1-17.716251 60.235253 134.28918 134.28918 0 0 0-22.322476 75.471228A70.865003 70.865003 0 0 0 276.97237 708.650029c23.385451 24.094101 75.471228 35.432501 63.778502 93.541803-7.0865 35.432501-65.195803 70.865003-146.690555 85.038004 8.149475 0-10.275425-32.597901-11.338401-35.432502a331.293888 331.293888 0 0 1-24.448426-39.684401 157.674631 157.674631 0 0 1-14.527325-94.250454 199.839308 199.839308 0 0 1 49.959827-84.329353 248.02751 248.02751 0 0 0 55.274702-109.48643c0-9.566775 2.480275-21.613826 4.606225-33.306551a121.53348 121.53348 0 0 1 10.984075-37.912777 76.179878 76.179878 0 0 1 15.944626-20.550851 20.196526 20.196526 0 0 0 6.37785-12.04705 18.779226 18.779226 0 0 0-2.480275-13.110026L156.14754 172.201957l186.374958 231.374234a20.550851 20.550851 0 0 0 8.149475 6.377851 22.676801 22.676801 0 0 0 9.566775 2.480275 23.739776 23.739776 0 0 0 9.921101-2.12595 23.385451 23.385451 0 0 0 8.149475-6.023526 15.235976 15.235976 0 0 0 3.897575-9.9211 16.653276 16.653276 0 0 0-3.188925-9.9211L341.459522 336.963089 294.334296 278.499461 200.083842 161.926532 71.463862 0l141.730005 151.651106 99.211004 111.258055L362.719023 318.892513c16.298951 18.779226 32.952226 35.432501 49.605502 56.692002l2.8346 3.54325v4.960551a59.172277 59.172277 0 0 1-0.70865 20.905175z" fill="#FF007A" p-id="7790"></path><path d="M457.678127 951.362663a131.100255 131.100255 0 0 1-24.094101-24.448426 260.783211 260.783211 0 0 0 24.094101 24.448426z" fill="#FF007A" p-id="7791"></path></svg>